<svg width="938" height="1170" viewBox="0 0 938 1170" fill="none" xmlns="http://www.w3.org/2000/svg">
<path d="M1.01721 3.58215L1.01721 3.44958L1.01721 1.72485L1.01721 1.34985L1.39221 1.34985L1.85687 1.34985L2.03595 1.34985L2.14852 1.48914L4.70419 4.65112L7.25639 7.80884C7.25671 7.8092 7.25703 7.80957 7.25735 7.80994C23.0424 26.766 43.4623 48.01 70.3742 66.381L70.3812 66.3857C96.8305 85.332 129.322 100.266 165.104 115.79L165.107 115.791C169.992 117.961 174.914 120.09 179.872 122.235C193.286 128.038 206.961 133.953 220.879 141.093C230.649 145.699 239.952 150.878 249.712 156.629C252.279 158.073 254.726 159.659 257.108 161.24C257.616 161.577 258.121 161.914 258.623 162.249C260.478 163.487 262.298 164.702 264.119 165.829C269.233 168.705 273.899 171.591 278.568 175.633C280.894 177.36 283.218 179.229 285.536 181.093L285.538 181.095C287.863 182.964 290.18 184.828 292.497 186.548L292.516 186.562L292.533 186.579C293.283 187.3 294.048 188.04 294.824 188.791C298.382 192.234 302.188 195.917 305.994 199.214L306.003 199.222L306.012 199.231C307.164 200.37 308.316 201.369 309.479 202.376L309.482 202.378C310.642 203.383 311.812 204.396 312.982 205.555L312.991 205.564L319.488 212.454C319.489 212.455 319.49 212.456 319.492 212.458C322.681 215.615 325.44 218.78 328.351 222.117C329.688 223.65 331.056 225.22 332.513 226.843L332.522 226.852L332.529 226.861C348.805 247.574 364.154 270.593 376.714 295.917L376.716 295.922C388.806 321.236 399.499 348.847 408.796 377.03C413.444 391.12 417.744 405.354 422.042 419.583C426.34 433.813 430.637 448.037 435.282 462.118C444.575 490.288 454.326 518.438 466.86 544.285L466.862 544.288C479.392 570.701 493.778 593.096 511.88 616.069L525.344 630.43L525.35 630.436C527.66 633.009 530.089 635.299 532.526 637.524C533.07 638.021 533.615 638.515 534.16 639.009C536.048 640.721 537.927 642.425 539.735 644.214C539.736 644.215 539.738 644.217 539.739 644.218L547.165 651.109L547.174 651.117C548.318 652.25 549.579 653.243 550.859 654.251L550.868 654.258C552.129 655.251 553.41 656.259 554.578 657.411C557.37 659.142 559.929 661.157 562.468 663.156L562.476 663.162C565.034 665.177 567.574 667.176 570.341 668.887L570.35 668.893L570.358 668.899C591.705 683.828 614.45 695.315 637.21 705.66L637.215 705.662C648.825 711.12 660.437 716.149 672.054 721.18L672.056 721.181C683.671 726.21 695.293 731.243 706.915 736.707C730.163 747.638 752.951 760.296 774.347 775.259L774.351 775.262C779.932 779.29 785.048 783.318 790.156 787.34L790.16 787.343L790.162 787.345L793.877 790.217L793.891 790.228L793.903 790.239L797.62 793.689L805.044 800.578C805.046 800.58 805.048 800.581 805.05 800.583C812.16 806.704 817.851 813.096 823.448 819.383C826.272 822.557 829.073 825.703 832.021 828.774L832.032 828.786L832.042 828.798L832.971 829.948L833.901 831.098L833.609 831.333L833.901 831.098L834.365 831.673L834.381 831.692L834.394 831.714L835.775 833.992L839.012 837.997L839.02 838.007L845.061 846.056L851.102 854.105L851.109 854.116L851.117 854.127L856.693 862.75C858.555 865.63 860.3 868.51 862.042 871.383L862.043 871.385C863.785 874.259 865.525 877.129 867.38 879.998L867.392 880.017L867.402 880.038C870.188 885.782 873.437 892.099 876.685 897.839C879.068 902.052 881.205 906.578 883.269 910.947C884.028 912.555 884.777 914.141 885.524 915.683L885.529 915.693C888.315 921.437 891.109 927.199 893.438 933.54C898.084 945.61 902.732 957.688 906.916 969.766C915.283 993.921 922.254 1016.92 928.76 1038.77L1.01721 3.58215ZM1.01721 3.58215L1.10056 3.6853C1.69978 4.42676 2.2952 5.22327 2.91115 6.04712C3.24676 6.49609 3.58847 6.95325 3.94022 7.41406C4.92611 8.70557 5.97869 10.0093 7.15219 11.1732C22.4972 30.7322 42.9625 53.1746 69.9427 72.1686C96.4605 91.7388 129.015 108.424 164.334 124.524C181.991 132.572 200.569 141.193 219.146 150.961L219.154 150.965C228.429 155.555 237.707 161.294 247.003 167.046C249.318 168.478 251.635 170.054 253.96 171.636L253.96 171.636C256.278 173.214 258.603 174.796 260.93 176.236C262.241 177.209 263.547 178.133 264.838 179.047C268.149 181.39 271.366 183.667 274.356 186.544L274.373 186.561L274.392 186.575C276.704 188.291 278.902 190.152 281.111 192.022L281.115 192.025C283.313 193.886 285.522 195.756 287.848 197.484L300.373 209.537C300.374 209.537 300.374 209.538 300.374 209.538C301.538 210.69 302.585 211.697 303.63 212.703C304.673 213.706 305.713 214.708 306.869 215.852C306.872 215.855 306.876 215.858 306.879 215.861L312.901 222.741L312.906 222.746C317.078 227.335 321.251 232.498 324.969 237.098C340.287 257.2 354.212 279.597 365.816 304.292C377.421 328.989 386.708 355.989 395.535 384.155C399.309 396.866 402.991 409.704 406.707 422.662C411.221 438.401 415.786 454.316 420.627 470.392L420.627 470.394C429.455 499.136 438.755 529.057 451.778 556.68C464.337 584.303 481.079 611.347 497.82 633.785L497.828 633.796L497.836 633.806L512.233 650.47C512.235 650.471 512.236 650.473 512.237 650.474C515.673 654.724 519.367 658.355 523.111 662.034C524.447 663.346 525.789 664.665 527.127 666.02L527.136 666.029L535.036 673.503L535.045 673.512L535.055 673.52C537.846 675.822 540.62 678.111 542.929 680.396L542.941 680.408L542.954 680.419C544.556 681.74 546.123 683.064 547.675 684.377C551.51 687.617 555.257 690.784 559.234 693.655C581.565 710.348 605.287 723.007 628.525 734.508C640.146 740.259 651.766 745.723 663.266 751.112L665.495 752.157C676.238 757.191 686.869 762.172 697.297 767.279C719.577 778.191 740.463 790.824 759.957 805.18C762.282 807.193 764.607 809.063 766.925 810.927L766.927 810.929C769.251 812.798 771.569 814.662 773.886 816.669L773.894 816.676L773.902 816.682L777.601 819.541L777.62 819.557L780.84 822.404L780.853 822.416L787.346 828.728L787.351 828.733L787.357 828.738C791.52 832.459 795.69 837.043 799.87 841.856C801.26 843.457 802.652 845.083 804.046 846.711C806.833 849.969 809.625 853.232 812.414 856.299C812.417 856.302 812.419 856.305 812.422 856.307L812.843 856.83L812.378 856.83L812.872 857.441L813.337 858.015L814.731 859.74L817.51 863.178L817.519 863.19L823.077 870.64L823.086 870.652L828.188 878.114L828.197 878.126L828.206 878.138C830.033 880.398 831.409 883.231 832.807 886.114L832.816 886.133L832.827 886.15C836.08 891.325 839.324 896.486 842.104 901.645C844.894 907.397 847.683 912.574 850.469 917.744L850.471 917.749C853.248 922.902 855.564 928.631 857.889 934.384C858.772 936.569 859.722 938.674 860.66 940.75C860.96 941.413 861.259 942.074 861.553 942.733C862.772 945.461 863.927 948.177 864.849 951.032L864.854 951.045C865.852 953.789 866.85 956.499 867.841 959.191C871.005 967.788 874.102 976.203 876.931 984.952L876.932 984.955C884.363 1007.37 890.866 1030.36 896.906 1052.77L896.908 1052.78C908.988 1095.32 921.076 1135.59 936.423 1169.54L937.14 1169.39L937.14 1065.9L937.14 1065.84L937.122 1065.79C934.335 1057.17 931.549 1047.97 928.761 1038.78L928.76 1038.77L1.01721 3.58215Z" stroke="white" stroke-opacity="0.1" stroke-width="0.75"/>
</svg>
